<svg width="20" height="20" viewBox="0 0 20 20" fill="none" xmlns="http://www.w3.org/2000/svg">
<path d="M9.99996 15.8333C13.2216 15.8333 15.8333 13.2217 15.8333 10C15.8333 6.77834 13.2216 4.16667 9.99996 4.16667C6.7783 4.16667 4.16663 6.77834 4.16663 10C4.16663 13.2217 6.7783 15.8333 9.99996 15.8333Z" fill="white"/>
<path d="M10 19.1333C9.54171 19.1333 9.16671 18.7917 9.16671 18.3333V18.2667C9.16671 17.8083 9.54171 17.4333 10 17.4333C10.4584 17.4333 10.8334 17.8083 10.8334 18.2667C10.8334 18.725 10.4584 19.1333 10 19.1333ZM15.95 16.7833C15.7334 16.7833 15.525 16.7 15.3584 16.5417L15.25 16.4333C14.925 16.1083 14.925 15.5833 15.25 15.2583C15.575 14.9333 16.1 14.9333 16.425 15.2583L16.5334 15.3667C16.8584 15.6917 16.8584 16.2167 16.5334 16.5417C16.375 16.7 16.1667 16.7833 15.95 16.7833ZM4.05004 16.7833C3.83337 16.7833 3.62504 16.7 3.45837 16.5417C3.13337 16.2167 3.13337 15.6917 3.45837 15.3667L3.56671 15.2583C3.89171 14.9333 4.41671 14.9333 4.74171 15.2583C5.06671 15.5833 5.06671 16.1083 4.74171 16.4333L4.63337 16.5417C4.47504 16.7 4.25837 16.7833 4.05004 16.7833ZM18.3334 10.8333H18.2667C17.8084 10.8333 17.4334 10.4583 17.4334 9.99999C17.4334 9.54166 17.8084 9.16666 18.2667 9.16666C18.725 9.16666 19.1334 9.54166 19.1334 9.99999C19.1334 10.4583 18.7917 10.8333 18.3334 10.8333ZM1.73337 10.8333H1.66671C1.20837 10.8333 0.833374 10.4583 0.833374 9.99999C0.833374 9.54166 1.20837 9.16666 1.66671 9.16666C2.12504 9.16666 2.53337 9.54166 2.53337 9.99999C2.53337 10.4583 2.19171 10.8333 1.73337 10.8333ZM15.8417 4.99166C15.625 4.99166 15.4167 4.90833 15.25 4.74999C14.925 4.42499 14.925 3.89999 15.25 3.57499L15.3584 3.46666C15.6834 3.14166 16.2084 3.14166 16.5334 3.46666C16.8584 3.79166 16.8584 4.31666 16.5334 4.64166L16.425 4.74999C16.2667 4.90833 16.0584 4.99166 15.8417 4.99166ZM4.15837 4.99166C3.94171 4.99166 3.73337 4.90833 3.56671 4.74999L3.45837 4.63333C3.13337 4.30833 3.13337 3.78333 3.45837 3.45833C3.78337 3.13333 4.30837 3.13333 4.63337 3.45833L4.74171 3.56666C5.06671 3.89166 5.06671 4.41666 4.74171 4.74166C4.58337 4.90833 4.36671 4.99166 4.15837 4.99166ZM10 2.53333C9.54171 2.53333 9.16671 2.19166 9.16671 1.73333V1.66666C9.16671 1.20833 9.54171 0.833328 10 0.833328C10.4584 0.833328 10.8334 1.20833 10.8334 1.66666C10.8334 2.12499 10.4584 2.53333 10 2.53333Z" fill="white"/>
</svg>
